<?xml version="1.0" standalone="no"?>
<!DOCTYPE svg PUBLIC "-//W3C//DTD SVG 20010904//EN"
 "http://www.w3.org/TR/2001/REC-SVG-20010904/DTD/svg10.dtd">
<svg version="1.0" xmlns="http://www.w3.org/2000/svg"
 width="827.000000pt" height="827.000000pt" viewBox="0 0 827.000000 827.000000"
 preserveAspectRatio="xMidYMid meet">

<g transform="translate(0.000000,827.000000) scale(0.100000,-0.100000)"
fill="#000000" stroke="none">
<path d="M3470 7481 l45 -8 -40 -3 c-33 -2 -36 -3 -15 -9 31 -7 38 -31 9 -31
-29 0 -23 -54 7 -58 16 -2 23 4 30 29 5 18 21 41 35 51 27 20 29 20 159 -7 14
-2 -2 4 -35 16 -37 12 -95 22 -150 24 -65 3 -78 1 -45 -4z"/>
<path d="M3219 7261 c-24 -21 -42 -41 -39 -43 3 -2 25 15 48 39 55 54 49 56
-9 4z"/>
<path d="M3115 7254 c-46 -17 -74 -40 -37 -31 12 3 22 1 22 -4 0 -10 44 15 68
38 18 17 0 16 -53 -3z"/>
<path d="M3700 7256 c0 -3 9 -10 20 -16 11 -6 20 -8 20 -6 0 3 -9 10 -20 16
-11 6 -20 8 -20 6z"/>
<path d="M3252 7239 c-13 -5 -35 -18 -49 -29 -14 -11 -29 -18 -33 -15 -3 2 -7
-3 -7 -11 0 -11 6 -14 21 -9 12 3 48 10 82 14 54 8 104 25 104 35 0 2 -25 3
-56 1 -47 -3 -54 -2 -43 11 13 16 12 16 -19 3z"/>
<path d="M3405 7190 c-136 -20 -222 -32 -237 -32 -10 1 -25 -12 -35 -29 -20
-33 -38 -39 -28 -9 7 23 -13 27 -34 8 -11 -11 -12 -10 -6 2 8 13 7 13 -9 1 -9
-8 -15 -22 -13 -32 6 -21 -36 -95 -51 -91 -8 1 -12 -13 -12 -38 0 -22 4 -40
10 -40 5 0 2 -9 -7 -19 -16 -19 -41 -18 -55 3 -4 6 -8 0 -8 -14 0 -21 -10 -30
-60 -53 -33 -15 -63 -27 -68 -27 -4 0 -13 -9 -20 -21 -18 -28 -27 -17 -11 12
12 23 12 23 -12 8 -13 -9 -29 -31 -36 -50 -8 -23 -12 -27 -13 -14 -1 18 -2 17
-15 -5 -7 -14 -16 -24 -19 -22 -15 6 -19 1 -6 -8 8 -5 12 -12 8 -15 -3 -4 -12
0 -19 8 -12 13 -18 13 -44 0 -39 -20 -48 -36 -28 -47 11 -6 18 -5 21 2 2 7 10
12 19 12 24 0 9 -25 -18 -28 -13 -2 -32 -11 -43 -20 -10 -10 -26 -16 -36 -14
-22 4 -38 -23 -35 -56 1 -13 -2 -25 -7 -28 -4 -3 -8 2 -8 10 0 10 -7 13 -22
11 -12 -3 -26 1 -30 8 -5 8 -8 7 -8 -5 0 -10 -6 -18 -14 -18 -8 0 -18 -5 -22
-11 -4 -8 0 -9 15 -4 21 6 22 5 25 -37 1 -7 -10 -13 -24 -13 -14 0 -25 -6 -25
-12 0 -7 -10 -19 -21 -28 -19 -13 -23 -13 -28 0 -3 8 -13 15 -22 15 -11 0 -3
11 22 31 22 17 41 32 43 35 2 2 -10 -1 -28 -6 -33 -9 -61 -32 -61 -49 0 -5 10
-17 22 -25 12 -9 20 -17 17 -19 -2 -1 -20 -11 -41 -22 -22 -11 -34 -24 -31
-32 3 -8 -2 -13 -12 -13 -20 0 -61 -30 -62 -45 0 -10 -68 -50 -99 -58 -15 -4
-14 -5 5 -6 15 -1 21 -6 18 -15 -3 -8 3 -22 13 -31 18 -16 19 -16 26 9 3 14
10 26 15 26 5 0 8 5 6 12 -1 6 8 17 20 23 13 7 21 15 18 18 -3 4 0 3 6 -2 6
-5 19 -7 28 -5 9 3 5 -2 -9 -10 -14 -8 -22 -15 -18 -16 14 0 97 43 93 49 -1 3
14 6 36 5 21 0 56 5 76 13 42 14 98 15 127 0 13 -6 16 -6 12 2 -8 13 34 23
158 37 61 6 68 11 61 35 -4 13 -2 19 8 19 10 0 14 -11 13 -37 l-1 -38 -65 -6
c-67 -6 -68 -7 -11 -15 19 -2 40 -9 47 -15 8 -7 14 -7 19 1 3 5 34 10 68 10
36 0 71 6 82 13 11 8 51 22 88 32 l69 18 -6 36 -6 36 16 -29 c14 -25 18 -42
23 -98 1 -4 50 -58 109 -121 83 -87 130 -148 202 -263 51 -82 127 -193 169
-247 42 -54 90 -119 108 -144 41 -59 87 -167 80 -187 -3 -8 -38 -33 -78 -56
-39 -23 -89 -58 -111 -78 -47 -42 -96 -135 -104 -195 -5 -36 -12 -47 -40 -62
-36 -19 -36 -37 -1 -34 47 3 52 0 29 -21 -12 -12 -22 -29 -22 -39 0 -10 -9
-21 -20 -24 -11 -3 -20 -10 -20 -17 0 -8 20 -9 73 -4 63 6 79 11 125 46 51 38
54 39 73 22 13 -12 16 -21 9 -29 -5 -6 -6 -15 -2 -20 4 -4 -3 -5 -16 -2 -15 3
-25 0 -29 -9 -3 -8 -18 -14 -34 -14 -31 0 -36 -8 -16 -30 7 -8 0 -6 -16 4 -35
21 -42 17 -26 -18 7 -14 10 -29 6 -32 -11 -11 -46 7 -52 27 -4 10 -11 19 -16
19 -13 0 -11 -34 3 -48 9 -9 7 -12 -10 -12 -14 0 -26 -9 -31 -23 -20 -51 -128
-118 -166 -103 -17 6 -20 -5 -6 -20 5 -5 -6 -24 -30 -46 -21 -21 -41 -33 -44
-28 -4 6 1 13 9 16 9 3 16 15 16 26 0 15 -5 18 -20 13 -14 -4 -22 -1 -27 12
-3 10 -13 26 -21 36 -8 9 -18 33 -21 53 -4 24 -16 44 -33 57 -26 19 -29 20
-46 4 -10 -9 -30 -17 -44 -17 -14 0 -32 -8 -42 -19 -14 -16 -15 -20 -2 -30 8
-7 21 -9 28 -5 10 5 10 4 1 -6 -7 -7 -27 -13 -45 -14 -41 -1 -47 -24 -15 -57
37 -37 45 -60 42 -114 -1 -27 -3 -53 -4 -58 -2 -13 -65 -47 -89 -47 -19 0 -22
-4 -17 -20 5 -16 2 -20 -19 -20 -14 0 -27 -4 -30 -8 -6 -10 -93 -8 -103 2 -4
3 -18 -5 -33 -19 -17 -16 -40 -26 -70 -29 -25 -2 -59 -7 -76 -11 -26 -6 -34
-3 -47 15 -9 13 -22 20 -30 17 -7 -3 -20 -1 -28 4 -12 8 -11 12 5 24 17 13 17
15 3 29 -17 18 -72 21 -82 6 -4 -6 -10 -8 -14 -6 -10 7 -79 -30 -108 -57 -19
-16 -27 -18 -45 -10 -13 6 -35 15 -49 21 -24 9 -26 14 -20 44 6 30 4 36 -35
65 -43 33 -70 97 -53 124 4 7 5 17 2 22 -9 16 -23 -16 -23 -55 0 -39 -20 -59
-57 -57 -12 0 -9 4 10 11 21 7 27 16 26 36 -2 24 -2 24 -6 5 -3 -18 -11 -23
-34 -23 -17 0 -39 -5 -50 -11 -22 -11 -61 -18 -127 -20 -27 -2 -38 -5 -30 -11
7 -4 33 -6 58 -3 44 5 39 -1 -15 -20 -33 -12 1 -17 39 -6 24 6 48 6 72 -1 23
-6 45 -6 63 0 26 9 27 8 23 -13 -3 -18 1 -24 19 -27 37 -5 28 -28 -16 -44 -52
-18 -84 -18 -91 1 -4 8 -10 15 -16 15 -12 0 0 -38 20 -65 13 -17 14 -18 8 -2
-4 13 -2 17 6 14 7 -3 55 -15 106 -28 85 -20 99 -21 148 -9 72 17 90 4 47 -37
-16 -15 -38 -34 -48 -41 -11 -7 1 -2 27 12 60 33 133 35 101 2 -4 -3 -8 -17
-10 -29 -2 -16 3 -13 18 14 l22 37 86 5 c160 9 406 37 456 51 28 7 81 25 119
40 37 14 77 26 87 26 11 0 51 11 89 24 39 14 70 22 70 18 0 -3 5 -1 12 6 16
16 28 15 28 -2 0 -8 8 -13 18 -11 9 2 20 4 25 4 4 1 7 13 7 27 0 16 -4 23 -12
18 -7 -4 -8 -3 -4 4 4 7 12 12 18 12 5 0 23 11 40 25 38 32 62 33 56 1 -4 -19
-1 -22 16 -18 12 3 24 10 28 16 5 8 8 7 8 -1 0 -7 6 -13 14 -13 9 0 12 -8 8
-26 -3 -19 -1 -25 7 -20 6 4 9 10 7 14 -2 4 2 12 9 19 11 10 15 10 18 0 3 -7
6 -5 6 5 1 9 -4 20 -10 23 -6 5 -4 12 8 21 26 19 31 17 25 -11 -3 -19 -1 -24
11 -20 8 4 15 18 15 32 0 14 6 29 13 34 8 5 10 9 4 9 -5 0 -25 -9 -43 -20 -18
-11 -33 -20 -35 -20 -1 0 -3 13 -4 29 -2 24 4 31 43 50 25 13 52 20 62 16 9
-3 13 -3 9 1 -9 9 70 57 82 50 4 -3 11 -32 15 -65 7 -61 41 -173 69 -227 37
-72 91 -272 106 -395 6 -45 16 -87 21 -95 7 -7 8 -27 5 -46 -5 -24 -2 -38 8
-46 8 -7 12 -22 9 -37 -2 -14 1 -31 7 -39 7 -8 9 -25 5 -40 -4 -16 -1 -32 6
-41 20 -24 -5 -45 -54 -45 -78 0 -169 -71 -237 -186 -13 -23 -56 -70 -95 -105
-117 -106 -128 -116 -141 -130 -7 -8 -17 -18 -23 -24 -5 -5 -21 -24 -35 -41
-24 -31 -24 -32 -5 -37 15 -4 28 7 55 43 34 46 124 130 140 130 4 0 -29 -42
-73 -92 -43 -51 -87 -105 -97 -120 -31 -50 0 -30 50 31 27 33 52 56 55 51 3
-6 23 11 44 36 21 25 41 43 44 40 3 -4 -4 -16 -15 -29 -36 -39 -46 -67 -39
-117 4 -29 1 -64 -9 -96 -8 -27 -15 -61 -15 -76 0 -21 -5 -28 -19 -28 -29 0
-33 -37 -7 -58 21 -16 22 -23 18 -117 -2 -56 1 -124 8 -155 6 -30 14 -91 17
-136 4 -69 2 -88 -18 -130 -12 -27 -30 -78 -39 -113 -9 -36 -21 -66 -28 -69
-18 -6 -32 40 -17 53 7 5 15 22 19 37 5 23 4 26 -11 21 -10 -3 -23 -10 -30
-15 -7 -6 -16 -7 -21 -4 -6 4 -7 -7 -3 -27 4 -17 7 -43 6 -56 -2 -22 -1 -23
11 -6 13 17 14 16 20 -13 4 -18 11 -35 15 -38 13 -8 11 -48 -3 -63 -10 -11
-10 -14 0 -18 7 -3 12 -23 12 -49 0 -26 -4 -43 -10 -39 -13 8 -50 -17 -50 -33
0 -8 -6 -12 -14 -9 -23 9 -35 -12 -26 -45 5 -16 6 -36 3 -43 -3 -8 2 -18 11
-21 26 -10 18 -23 -16 -26 -27 -2 -34 -8 -36 -30 -3 -21 6 -34 42 -64 25 -21
46 -44 46 -51 0 -7 9 -13 19 -13 15 0 21 -10 26 -40 8 -45 22 -50 49 -19 22
26 35 16 42 -32 5 -39 -40 -132 -67 -137 -14 -2 -15 5 -11 50 l5 53 -21 -19
c-25 -21 -46 -11 -58 27 -9 31 -34 57 -55 57 -25 0 -32 -16 -19 -40 33 -62
-84 -13 -203 85 -9 8 -24 15 -32 15 -9 0 -15 9 -15 21 0 15 -4 19 -16 15 -9
-3 -21 -3 -27 1 -7 4 -3 9 11 13 42 9 27 33 -28 44 -21 4 -25 11 -27 46 -2 29
1 40 12 40 7 0 16 -4 19 -8 3 -5 19 -7 35 -4 17 2 39 -2 53 -12 12 -9 26 -16
30 -16 14 0 -15 39 -33 43 -14 4 -15 12 -9 46 5 27 3 44 -4 49 -47 34 -199 50
-228 24 -16 -14 -20 -13 -36 1 -10 10 -28 17 -40 17 -21 0 -86 25 -142 55 -17
9 -31 10 -42 4 -28 -16 -32 10 -7 38 13 14 47 36 74 49 28 13 48 24 45 25 -3
0 -36 2 -75 3 -73 3 -140 -19 -152 -49 -3 -8 -12 -15 -20 -15 -9 0 3 17 28 40
l44 39 -32 1 c-17 0 -35 5 -38 10 -3 6 -14 10 -24 10 -10 0 -24 7 -31 15 -10
12 -9 15 6 15 13 1 6 8 -18 21 -21 11 -38 23 -38 27 0 5 -24 5 -52 2 -97 -11
-183 -95 -225 -220 -10 -30 -23 -55 -29 -57 -14 -4 34 132 58 170 22 32 23 41
4 34 -10 -4 -13 -1 -9 9 3 7 0 14 -6 14 -7 0 -9 9 -5 25 5 19 2 25 -11 25 -13
0 -16 6 -13 25 3 14 1 28 -4 31 -5 3 -4 12 3 20 6 7 9 21 5 29 -3 9 0 15 11
15 12 0 13 3 3 15 -10 12 -6 22 19 54 17 22 30 45 29 52 -2 8 15 16 47 21 84
15 105 1 107 -72 1 -22 6 -30 19 -30 16 0 18 7 16 52 -2 47 -5 54 -34 70 -78
46 -228 16 -375 -74 -79 -49 -175 -100 -267 -142 -23 -11 -57 -34 -75 -52 -19
-18 -58 -47 -87 -65 -30 -18 -63 -39 -74 -48 -11 -8 5 11 35 43 61 65 36 60
-38 -8 -28 -25 -41 -33 -34 -19 7 12 37 43 67 69 31 26 53 49 50 52 -3 3 1 12
8 20 26 33 -57 -25 -133 -92 -51 -45 -89 -89 -111 -129 -26 -45 -35 -55 -37
-39 -7 48 90 190 173 253 30 23 55 43 55 44 0 2 -18 -4 -39 -13 -22 -9 -37
-20 -35 -24 3 -4 -16 -6 -41 -4 -25 2 -45 -1 -45 -6 0 -6 -16 -8 -35 -6 -19 2
-35 0 -35 -5 0 -5 -9 -7 -20 -4 -11 3 -18 1 -14 -4 5 -8 0 -10 -38 -13 -7 -1
-16 -5 -20 -11 -4 -5 -12 -11 -18 -11 -5 -1 -14 -2 -19 -3 -5 0 -11 -10 -14
-22 -5 -17 -3 -18 9 -8 12 10 19 8 35 -10 18 -19 18 -23 6 -42 -10 -13 -17
-16 -22 -10 -3 6 -3 11 0 11 3 0 0 6 -7 13 -7 8 -25 12 -40 11 -23 -3 -31 2
-41 24 -13 29 -47 68 -47 53 0 -4 10 -23 23 -42 43 -63 40 -79 -13 -79 -10 0
-20 -7 -24 -15 -6 -18 -52 -20 -62 -3 -5 7 -10 4 -16 -11 -4 -12 -11 -20 -16
-17 -4 2 -14 1 -22 -5 -10 -6 -11 -9 -2 -9 6 0 12 -4 12 -9 0 -5 -11 -8 -24
-8 -42 0 -166 -35 -160 -44 3 -5 11 -6 17 -2 7 4 29 9 50 10 29 3 37 0 31 -9
-6 -10 -4 -11 7 -1 16 16 79 17 79 2 0 -6 10 -10 23 -9 38 3 45 1 52 -19 10
-33 32 -33 27 0 -4 25 -1 29 19 31 32 2 41 3 63 13 13 6 21 4 24 -4 3 -9 7 -9
19 1 8 6 24 13 35 15 16 3 19 -1 15 -19 -2 -13 -8 -30 -11 -40 -5 -11 -1 -18
13 -23 12 -3 21 -13 21 -21 0 -8 4 -14 9 -14 5 0 9 -14 9 -30 -1 -17 4 -36 10
-42 7 -7 12 -24 12 -38 0 -56 61 -100 138 -100 24 0 68 15 123 41 95 47 174
73 195 65 8 -3 14 -1 14 4 0 20 174 60 266 60 47 0 54 -3 78 -35 26 -34 58
-45 71 -25 4 7 19 3 39 -10 19 -11 41 -20 50 -20 22 0 9 -25 -37 -74 -18 -19
-39 -46 -45 -60 -6 -14 -16 -26 -23 -26 -6 0 -33 -25 -61 -56 -29 -31 -79 -74
-112 -96 -34 -23 -75 -54 -93 -71 -19 -18 -36 -26 -44 -22 -7 5 -10 4 -5 -3 3
-6 2 -13 -4 -17 -5 -3 -10 -1 -10 6 0 8 -6 6 -18 -4 -10 -10 -24 -17 -30 -17
-7 0 -12 -4 -12 -9 0 -4 -23 -9 -52 -10 -53 -1 -98 18 -98 42 0 6 -8 21 -17
32 -10 13 -14 15 -10 4 3 -10 -8 -26 -30 -45 -20 -16 -46 -40 -59 -53 -13 -13
-30 -21 -39 -18 -8 4 -14 3 -14 -1 4 -26 -3 -34 -26 -28 -18 5 -23 3 -19 -7 3
-9 -4 -13 -26 -11 -17 1 -29 0 -26 -3 3 -3 -3 -13 -14 -22 -27 -22 -38 -71
-16 -71 9 0 16 -6 16 -12 1 -9 5 -8 13 2 7 9 27 22 45 29 17 7 32 17 32 22 0
5 7 9 15 9 8 0 24 5 34 12 15 9 25 9 46 0 22 -10 26 -18 23 -44 -2 -27 -11
-36 -50 -57 -44 -24 -46 -26 -31 -43 19 -21 35 -24 27 -4 -5 13 59 46 118 60
18 4 28 14 30 29 2 14 9 21 21 21 9 -1 17 2 17 7 0 5 -7 9 -16 9 -18 0 -44
-23 -44 -39 0 -6 -7 -11 -15 -11 -19 0 -19 10 1 38 8 12 12 22 8 22 -4 0 1 6
12 14 10 8 20 19 20 25 1 6 2 18 3 26 1 9 7 12 19 9 12 -4 13 -3 4 3 -7 5 -10
16 -7 24 7 19 67 25 64 7 -3 -27 2 -37 16 -32 18 7 19 0 5 -27 -6 -10 -18 -19
-28 -20 -10 0 -12 -3 -4 -6 13 -5 -14 -52 -48 -83 -9 -8 -16 -25 -15 -38 1
-17 -2 -21 -17 -16 -10 3 -18 0 -18 -6 0 -7 -8 -10 -20 -7 -11 3 -20 1 -20 -4
0 -12 -53 -37 -67 -32 -7 3 -13 -1 -13 -7 0 -10 -3 -10 -14 -1 -12 10 -15 8
-18 -10 -2 -18 -13 -25 -49 -35 -26 -6 -62 -23 -80 -37 -22 -16 -56 -28 -94
-33 l-60 -9 47 -3 c39 -3 46 -6 41 -20 -5 -13 -1 -12 21 6 16 12 40 22 55 23
22 0 23 1 7 8 -17 7 -17 8 -3 14 11 4 18 -1 22 -14 6 -18 35 -28 35 -11 0 10
8 12 60 15 19 1 39 8 43 15 5 7 13 10 18 7 5 -4 22 0 39 8 33 17 48 11 22 -9
-14 -11 -15 -13 -1 -14 8 0 19 4 25 10 7 7 19 -11 38 -51 15 -33 34 -63 42
-66 19 -7 132 68 215 142 79 71 128 96 251 129 53 15 124 38 158 52 79 32 125
30 126 -6 1 -57 33 -65 103 -25 52 30 51 30 51 6 0 -31 23 -44 54 -30 19 9 26
20 26 39 0 21 7 30 28 39 74 31 456 -56 510 -115 23 -26 33 -89 10 -66 -7 7
-20 12 -30 12 -16 0 -17 -2 -6 -14 7 -8 18 -12 23 -9 6 2 2 -2 -8 -10 -9 -8
-28 -12 -42 -9 -18 3 -25 0 -25 -12 0 -12 7 -14 28 -10 20 3 35 -2 57 -21 19
-17 23 -25 12 -21 -11 3 -23 3 -29 0 -15 -9 12 -24 44 -24 18 0 31 -8 39 -22
7 -13 12 -24 11 -25 -1 -2 0 -3 3 -3 3 0 9 0 14 0 5 0 11 9 14 21 4 13 10 18
17 14 9 -6 9 -10 -1 -16 -9 -6 4 -9 35 -9 44 0 47 -1 35 -17 -11 -15 -11 -16
1 -5 22 19 40 14 40 -13 0 -18 -4 -23 -15 -19 -8 4 -15 2 -15 -4 0 -5 14 -12
31 -16 47 -9 55 -7 34 7 -10 8 -15 19 -11 25 11 18 43 14 63 -6 23 -23 53 -35
53 -20 0 10 34 7 75 -8 16 -6 15 -3 -5 14 -14 12 -20 21 -15 22 6 0 15 -4 20
-9 11 -9 156 -43 162 -38 1 2 -36 16 -82 32 -89 29 -112 44 -73 46 17 1 18 3
6 6 -20 5 -22 12 -9 32 8 13 12 13 27 0 11 -9 15 -9 10 -1 -5 9 5 12 39 12 28
0 44 -4 40 -10 -3 -5 1 -10 9 -10 8 0 18 5 21 10 3 6 22 10 42 10 28 0 34 -3
29 -16 -4 -12 -1 -14 14 -9 11 4 20 5 20 2 0 -2 -32 -16 -71 -32 -107 -42 -75
-42 44 0 105 37 106 37 179 25 l73 -13 -50 -22 c-28 -12 -60 -32 -72 -44 -12
-11 -27 -21 -33 -21 -6 0 -13 -7 -17 -16 -3 -8 -15 -14 -27 -13 -11 2 -35 -4
-51 -13 -46 -25 -204 -68 -247 -68 -26 0 -38 -4 -38 -14 0 -10 -19 -16 -62
-21 -35 -4 -72 -11 -83 -16 -34 -14 62 -10 160 6 105 17 138 19 115 6 -26 -15
-140 -41 -180 -41 -29 0 -42 -5 -50 -20 -10 -18 -8 -20 26 -20 21 0 51 4 68 9
17 5 49 14 71 19 127 32 234 66 225 72 -15 9 33 22 53 14 24 -9 163 43 297
112 136 70 156 73 251 49 33 -9 64 -13 70 -9 6 3 16 -2 23 -11 11 -16 20 -11
90 50 43 37 91 71 107 74 21 4 26 10 20 20 -8 12 -12 12 -26 -3 -21 -21 -30
-15 -16 11 6 10 16 38 22 62 7 28 25 59 50 84 33 34 39 47 39 83 0 23 7 74 15
113 18 88 7 121 -55 164 -32 22 -80 21 -193 -3 -151 -32 -322 -60 -409 -67
l-82 -6 17 26 c9 14 17 30 17 35 0 5 -39 26 -87 48 -98 43 -219 144 -208 173
3 8 3 12 -1 9 -4 -4 -24 7 -45 26 -32 27 -52 35 -121 45 -160 24 -178 31 -194
70 -8 19 -22 43 -30 53 -13 13 -14 23 -6 45 10 27 11 27 17 5 4 -12 11 -22 17
-22 5 0 18 -16 29 -35 12 -20 29 -40 39 -45 34 -18 171 -41 221 -36 54 4 55 3
34 -46 -6 -14 -2 -18 18 -18 16 0 39 -15 68 -46 87 -91 249 -210 298 -220 17
-4 59 1 97 12 55 14 67 15 74 4 7 -12 24 -11 107 4 54 10 123 24 154 32 113
28 169 16 228 -51 34 -39 36 -56 21 -154 -6 -35 -10 -65 -8 -66 5 -4 211 44
241 56 33 14 55 48 37 59 -6 4 15 14 50 24 34 10 64 15 67 12 3 -3 -8 -34 -25
-69 -35 -71 -119 -157 -128 -132 -8 20 -17 19 -31 -4 -10 -16 -9 -18 8 -14 11
3 19 0 19 -7 0 -7 7 -10 18 -6 39 13 -105 -105 -169 -139 -39 -20 -68 -39 -65
-42 11 -12 146 77 212 139 69 66 174 206 174 233 0 8 11 23 25 33 16 13 22 23
15 27 -8 5 -6 14 4 31 21 30 20 40 0 23 -15 -12 -16 -11 -11 6 14 51 18 97 8
90 -6 -3 -11 -16 -11 -27 0 -51 -22 -95 -57 -112 -38 -18 -47 -20 -39 -7 8 12
-19 22 -30 11 -10 -10 -94 -24 -94 -16 0 3 12 12 28 20 26 14 25 15 -27 9 -47
-5 -54 -4 -48 10 3 9 1 18 -6 20 -7 2 -3 3 9 1 11 -2 29 2 38 9 16 12 16 13
-3 15 -12 1 -30 3 -41 4 -11 1 -20 6 -20 10 0 4 -9 8 -21 8 -11 0 -17 5 -14
10 13 22 -8 8 -32 -20 -34 -41 -54 -40 -48 3 25 182 44 450 50 742 2 94 8 197
13 231 12 71 8 153 -12 272 -22 127 -24 146 -37 262 -12 98 -11 109 9 170 33
99 48 182 81 455 17 138 35 284 41 325 13 88 23 291 14 272 -4 -9 -13 1 -25
28 -11 23 -19 47 -19 52 0 6 -20 52 -45 103 -53 108 -76 207 -81 349 -3 98 -4
102 -55 200 -55 109 -85 156 -106 169 -7 4 -13 13 -13 18 0 6 -16 31 -37 55
-33 42 -35 46 -20 61 15 15 18 15 37 -2 36 -33 31 -10 -15 59 -24 37 -47 77
-51 89 -3 12 -13 32 -20 45 -31 47 1 52 106 14 51 -19 59 -19 110 -6 30 7 62
23 71 33 24 30 32 108 14 144 -17 35 -18 40 -6 33 21 -13 34 25 28 81 -4 42
-2 62 8 73 19 21 -4 50 -47 59 -27 6 -33 12 -30 30 1 14 -2 21 -10 19 -7 -3
-15 -27 -18 -54 -3 -27 -13 -64 -21 -83 -13 -27 -17 -30 -23 -15 -5 14 -9 15
-19 5 -9 -9 -7 -16 13 -32 l25 -20 -34 16 c-49 24 -108 91 -142 160 -16 33
-29 66 -29 73 0 7 -6 21 -12 32 -20 31 4 48 36 26 27 -17 121 -22 143 -8 18
11 -5 41 -34 45 -37 5 -38 15 -5 56 18 22 32 43 32 46 0 4 -15 3 -32 -1 -31
-6 -32 -5 -18 11 13 16 13 18 0 13 -8 -3 -14 -13 -13 -24 2 -20 -31 -67 -40
-57 -4 3 -13 0 -21 -6 -12 -10 -23 -10 -52 -1 -46 16 -62 3 -46 -37 14 -35 9
-102 -14 -170 -15 -43 -22 -52 -47 -57 -17 -4 -31 -14 -34 -26 -6 -22 -56 -29
-68 -10 -4 6 -15 8 -25 5 -15 -5 -21 2 -30 34 -9 34 -8 46 9 79 17 34 18 39 4
48 -11 7 -13 17 -9 32 6 19 10 21 22 11 8 -6 14 -20 14 -31 0 -15 5 -19 20
-15 10 3 24 -1 31 -9 13 -16 65 -19 74 -4 3 6 -3 10 -13 10 -23 0 -126 81
-143 112 -28 53 -2 138 43 138 43 0 55 -16 48 -62 -4 -24 -11 -51 -15 -60 -4
-10 -3 -18 2 -18 19 0 33 26 33 62 0 40 13 51 25 21 6 -17 7 -17 16 0 6 9 16
17 23 17 8 0 16 8 18 18 6 23 152 72 216 72 55 0 75 -16 112 -88 l21 -44 -29
18 c-19 11 -36 14 -48 9 -16 -7 -15 -9 11 -14 22 -5 36 -18 55 -51 l25 -45 3
37 c5 59 -73 199 -120 214 -12 3 -32 17 -44 29 -13 13 -42 26 -66 30 -24 4
-48 11 -53 15 -16 13 -206 -4 -237 -21 -25 -13 -38 -11 -32 6 7 18 0 19 -25 3
-19 -11 -51 -5 -51 10 0 15 95 52 133 52 20 0 37 4 37 8 0 18 -114 -7 -159
-35 -59 -36 -147 -163 -156 -225 -6 -39 5 -176 21 -272 5 -31 4 -37 -7 -30 -7
4 -4 -8 8 -28 l22 -37 -21 -58 c-21 -60 -38 -88 -38 -63 0 7 5 27 11 44 16 45
-2 81 -56 114 -41 25 -64 56 -52 69 10 9 78 -29 89 -51 12 -21 12 -21 18 4 8
31 -31 114 -102 217 -47 67 -154 173 -243 239 -22 16 -41 32 -43 37 -2 4 -10
7 -17 7 -7 0 -15 6 -18 14 -3 8 -41 39 -84 70 -43 30 -95 73 -115 95 -38 43
-77 60 -42 19 l19 -23 -26 23 c-33 29 -36 28 -59 -10 l-20 -33 5 33 c3 28 1
31 -11 22 -11 -10 -15 -9 -20 3 -3 9 -3 21 1 27 3 6 -3 10 -14 10 -18 0 -19 3
-9 25 15 33 26 32 71 -10 40 -37 61 -48 34 -17 -10 10 -14 22 -10 26 5 4 3 7
-2 5 -16 -4 -45 12 -39 22 10 17 43 9 49 -11 3 -11 11 -20 17 -20 5 0 8 7 4
15 -8 21 25 19 98 -5 69 -23 69 -23 60 -8 -5 8 -2 9 10 5 10 -4 29 -7 43 -7
21 0 23 -2 13 -15 -10 -12 -7 -13 20 -5 27 8 31 6 28 -8 -2 -9 -14 -22 -28
-29 -32 -16 -94 -17 -84 -2 5 9 -1 10 -21 5 -15 -4 -40 -10 -56 -13 -16 -3
-26 -9 -23 -14 7 -12 128 -11 190 0 69 13 169 52 155 60 -7 5 4 16 26 28 21
12 52 36 68 54 28 30 29 31 5 19 -14 -7 -37 -27 -53 -43 -16 -17 -33 -27 -42
-24 -8 4 -17 2 -20 -3 -4 -6 -12 -10 -18 -10 -7 0 0 11 15 25 16 13 24 26 19
30 -6 3 12 26 40 52 27 25 48 53 48 62 -1 14 -2 14 -6 -1 -6 -23 -33 -11 -33
14 0 10 -14 32 -31 48 -26 24 -36 27 -56 19 l-25 -9 20 32 c23 39 62 151 61
176 0 9 -6 1 -13 -18 -7 -19 -28 -64 -46 -99 -29 -58 -33 -63 -43 -45 -14 26
-33 44 -46 44 -5 0 -12 9 -16 20 -3 11 -19 29 -36 40 -34 25 -36 40 -8 66 27
25 47 59 27 50 -7 -4 2 6 21 23 52 45 32 46 -36 2 l-61 -39 26 51 c15 29 29
54 32 57 12 12 30 51 30 64 0 8 -7 17 -16 20 -30 11 -179 6 -243 -9 -68 -17
-94 -14 -39 4 115 36 298 39 417 6 52 -15 61 -21 61 -40 0 -13 3 -30 6 -39 5
-13 -2 -16 -42 -17 -44 -1 -46 -2 -18 -8 52 -13 57 -19 50 -70 -5 -33 -4 -42
3 -31 6 8 11 25 11 37 0 37 22 39 52 3 15 -19 28 -28 28 -21 0 7 -16 29 -35
48 -26 26 -35 43 -35 69 0 19 3 34 8 34 10 0 51 -27 86 -59 l30 -26 -16 25
c-8 14 -36 38 -61 55 -30 20 -47 40 -52 60 -7 27 -8 28 -12 8 -5 -27 -3 -27
-78 -4 -33 10 -84 22 -112 26 -29 4 -53 11 -53 16 0 10 -101 10 -175 -1z
m-243 -150 c-1 -18 -11 -44 -21 -59 -10 -14 -24 -43 -32 -64 -11 -30 -15 -34
-20 -20 -9 22 -1 61 19 91 19 29 8 40 -21 23 l-22 -14 20 24 c55 65 82 72 77
19z m219 -26 l23 -46 -24 -19 c-14 -10 -29 -19 -35 -19 -5 0 1 7 13 16 23 16
27 31 14 52 -7 10 -16 10 -38 2 -27 -9 -27 -9 -10 5 10 8 23 16 29 18 6 2 7 9
3 15 -5 9 -13 9 -29 1 -21 -10 -21 -10 -3 5 28 23 32 21 57 -30z m-74 -97 c-5
-13 -21 22 -30 68 -5 24 -2 22 14 -13 11 -24 18 -49 16 -55z m-253 28 c-23
-35 -29 -25 -7 13 10 18 19 27 21 22 2 -5 -4 -20 -14 -35z m207 19 c5 -15 8
-29 5 -31 -2 -2 -8 10 -14 26 -13 38 -5 41 9 5z m107 14 c-3 -7 -13 -15 -23
-16 -15 -4 -16 -2 -4 12 17 19 32 21 27 4z m-149 -80 c10 -30 9 -31 -4 -14 -8
11 -15 26 -15 33 0 22 8 14 19 -19z m-243 -169 c1 -46 -5 -53 -33 -36 -6 4
-13 2 -15 -5 -3 -7 -14 -3 -31 12 -20 17 -24 26 -15 31 7 5 21 1 32 -9 19 -17
19 -17 0 13 -12 19 -14 26 -5 20 10 -6 13 -4 9 6 -4 11 2 15 26 14 30 0 31 -1
32 -46z m-106 -29 c0 -5 -2 -10 -4 -10 -3 0 -8 5 -11 10 -3 6 -1 10 4 10 6 0
11 -4 11 -10z m178 -119 c4 -3 13 -18 19 -33 10 -22 9 -33 -1 -54 -16 -30 -14
-35 -45 99 -26 108 -25 119 0 48 10 -30 23 -57 27 -60z m82 85 c0 -2 3 -12 7
-21 5 -15 3 -16 -15 -6 -25 13 -29 31 -7 31 8 0 15 -2 15 -4z m-310 -55 c0
-12 -20 -25 -27 -18 -7 7 6 27 18 27 5 0 9 -4 9 -9z m561 -30 c19 -16 22 -22
12 -32 -11 -10 -18 -9 -40 7 -15 11 -29 26 -31 32 -6 19 33 14 59 -7z m479 5
c0 -2 -8 -10 -17 -17 -16 -13 -17 -12 -4 4 13 16 21 21 21 13z m-600 -51 c0
-18 -5 -25 -20 -25 -23 0 -24 3 -8 30 17 27 28 25 28 -5z m-810 -10 c-7 -8
-14 -15 -15 -15 -2 0 -5 7 -9 15 -4 10 1 15 16 15 17 0 18 -2 8 -15z m205 -15
c-3 -5 -11 -10 -16 -10 -6 0 -7 5 -4 10 3 6 11 10 16 10 6 0 7 -4 4 -10z
m-120 -130 c-3 -5 -11 -10 -16 -10 -6 0 -7 5 -4 10 3 6 11 10 16 10 6 0 7 -4
4 -10z m-35 -20 c0 -5 -4 -10 -10 -10 -5 0 -10 5 -10 10 0 6 5 10 10 10 6 0
10 -4 10 -10z m340 0 c0 -5 -7 -10 -16 -10 -8 0 -12 5 -9 10 3 6 10 10 16 10
5 0 9 -4 9 -10z m-434 -15 c-11 -8 -25 -15 -30 -15 -6 0 -2 7 8 15 11 8 25 15
30 15 6 0 2 -7 -8 -15z m1162 -114 c56 -36 65 -46 30 -35 l-23 7 20 -24 c34
-39 -67 47 -125 108 l-55 57 50 -40 c28 -22 74 -55 103 -73z m-1458 -17 c0 -8
-5 -12 -10 -9 -6 4 -8 11 -5 16 9 14 15 11 15 -7z m1776 -256 l29 -31 -32 22
c-35 23 -50 41 -35 41 4 0 21 -14 38 -32z m235 -295 c-8 -14 -10 -7 -11 33 0
28 3 54 8 58 11 12 14 -72 3 -91z m729 -27 c0 -8 -11 -11 -29 -8 -18 2 -28 9
-25 17 6 15 54 7 54 -9z m4 -58 c17 -26 9 -89 -12 -96 -6 -2 -12 1 -12 6 0 6
-11 24 -25 40 -25 30 -25 30 -4 35 15 4 20 11 16 21 -10 25 20 19 37 -6z
m-404 -68 c0 -10 5 -22 10 -25 15 -9 12 -25 -4 -19 -18 7 -40 50 -31 63 9 16
25 4 25 -19z m0 -65 c7 -9 10 -18 7 -22 -8 -7 -37 15 -37 28 0 14 16 11 30 -6z
m-503 -67 c55 11 78 9 68 -8 -3 -4 -14 -6 -25 -3 -24 6 -70 -21 -70 -42 0 -7
-6 -20 -12 -27 -35 -37 -88 -108 -88 -118 0 -8 11 -9 33 -5 39 9 92 59 84 80
-10 25 14 28 44 6 33 -25 39 -26 39 -6 0 8 6 12 14 9 9 -3 19 4 27 18 16 32
15 31 41 17 41 -21 103 -79 108 -101 3 -12 19 -25 38 -32 21 -7 39 -24 51 -46
14 -26 29 -38 57 -46 25 -7 40 -18 43 -30 6 -32 23 -46 54 -41 43 6 61 -36 54
-126 -5 -81 -27 -115 -52 -82 -8 11 -15 26 -15 33 0 6 -10 12 -23 12 -16 0
-35 16 -61 51 -41 53 -115 119 -135 119 -6 0 -11 4 -11 9 0 5 -10 13 -22 16
-52 14 -78 28 -78 40 0 7 -10 24 -22 38 l-22 25 -65 -25 c-35 -13 -83 -35
-105 -47 -46 -26 -106 -41 -106 -26 0 6 -10 10 -23 10 -29 0 -47 18 -47 46 0
12 -7 27 -15 34 -12 10 -15 9 -15 -4 0 -10 -7 -24 -15 -33 -17 -17 -14 -40 4
-35 14 3 14 -4 1 -28 -6 -11 -39 -27 -82 -40 -40 -13 -76 -25 -80 -27 -5 -2
-8 1 -8 6 0 6 8 11 18 11 19 0 112 55 112 66 0 3 -10 14 -21 23 -21 17 -21 19
-5 43 20 30 14 50 -20 69 l-26 13 30 27 c17 15 61 45 99 67 37 22 81 54 96 70
26 27 31 29 64 19 25 -8 50 -8 90 1z m-224 -478 c7 -25 -5 -25 -27 -1 -20 23
-13 49 9 31 7 -6 15 -20 18 -30z m464 -117 c21 -10 42 -24 46 -30 4 -7 16 -13
27 -13 10 0 20 -5 22 -11 2 -7 16 -4 37 8 25 13 35 15 38 6 3 -8 14 -11 26 -8
30 7 51 -8 43 -32 -18 -57 -114 -117 -211 -133 -54 -8 -75 -4 -75 14 0 6 -23
34 -50 61 -30 30 -49 57 -46 67 2 9 -5 29 -15 45 -10 15 -19 31 -19 36 0 15
139 7 177 -10z m-877 -407 c0 -3 -4 -8 -10 -11 -5 -3 -10 -1 -10 4 0 6 5 11
10 11 6 0 10 -2 10 -4z m918 -199 c52 -53 160 -244 187 -328 37 -118 75 -274
75 -308 0 -21 -5 -31 -15 -31 -10 0 -15 10 -15 29 0 35 -53 245 -82 326 -11
33 -51 109 -87 169 -52 86 -84 126 -153 190 -48 44 -90 86 -92 93 -7 16 139
-95 182 -140z m-360 -863 c-3 -27 -4 -26 -9 8 -3 22 -1 34 4 29 5 -5 7 -21 5
-37z m802 -162 c0 -5 -7 -9 -15 -9 -8 0 -12 4 -9 9 3 4 9 8 15 8 5 0 9 -4 9
-8z m30 -77 c7 -9 8 -15 2 -15 -5 0 -12 7 -16 15 -3 8 -4 15 -2 15 2 0 9 -7
16 -15z m-95 -177 c-15 -70 -45 -126 -45 -85 0 6 -3 21 -6 32 -3 14 3 30 20
48 31 33 38 34 31 5z m135 -22 c0 -3 -4 -8 -10 -11 -5 -3 -10 -1 -10 4 0 6 5
11 10 11 6 0 10 -2 10 -4z m-55 -15 c-3 -6 3 -14 12 -20 10 -6 15 -11 11 -11
-5 0 -9 1 -10 2 -2 2 -17 -7 -35 -20 -17 -12 -35 -22 -40 -22 -4 0 0 5 10 11
9 5 17 15 17 21 0 6 7 20 17 30 17 19 28 24 18 9z m-118 -93 c-3 -8 -6 -5 -6
6 -1 11 2 17 5 13 3 -3 4 -12 1 -19z m187 -60 c-13 -24 -47 -58 -58 -58 -5 0
5 16 24 35 35 37 46 44 34 23z m-234 -2 c0 -2 -9 -6 -20 -9 -11 -3 -18 -1 -14
4 5 9 34 13 34 5z m80 -46 c0 -5 -4 -10 -10 -10 -5 0 -10 5 -10 10 0 6 5 10
10 10 6 0 10 -4 10 -10z m176 -122 c-2 -18 -5 -44 -6 -58 -2 -19 -4 -15 -10
15 -5 25 -3 46 4 57 15 25 16 23 12 -14z m-293 -151 c3 -8 2 -29 -3 -48 -7
-28 -8 -30 -9 -9 -1 14 -4 35 -7 48 -7 23 10 31 19 9z m-46 -124 c6 -42 -23
-191 -39 -208 -7 -7 -8 10 -4 50 3 33 9 95 12 138 7 82 21 91 31 20z m-837 27
c0 -5 -4 -10 -9 -10 -6 0 -13 5 -16 10 -3 6 1 10 9 10 9 0 16 -4 16 -10z m14
-51 c-3 -5 -10 -7 -15 -3 -5 3 -7 10 -3 15 3 5 10 7 15 3 5 -3 7 -10 3 -15z
m-1708 -55 c-4 -9 -9 -15 -11 -12 -3 3 -3 13 1 22 4 9 9 15 11 12 3 -3 3 -13
-1 -22z m1724 18 c0 -13 -12 -22 -22 -16 -10 6 -1 24 13 24 5 0 9 -4 9 -8z
m-1690 -22 c-6 -11 -13 -20 -16 -20 -2 0 0 9 6 20 6 11 13 20 16 20 2 0 0 -9
-6 -20z m109 17 c-2 -1 -13 -9 -24 -17 -19 -14 -19 -14 -6 3 7 9 18 17 24 17
6 0 8 -1 6 -3z m1541 -17 c0 -5 -5 -10 -11 -10 -5 0 -7 5 -4 10 3 6 8 10 11
10 2 0 4 -4 4 -10z m-1727 -15 c-3 -9 -8 -14 -10 -11 -3 3 -2 9 2 15 9 16 15
13 8 -4z m1797 -16 c0 -5 -7 -9 -15 -9 -15 0 -20 12 -9 23 8 8 24 -1 24 -14z
m-1716 -49 c-15 -22 -29 -40 -31 -40 -5 0 3 15 29 53 30 43 31 32 2 -13z
m1666 30 c0 -5 -4 -10 -10 -10 -5 0 -10 5 -10 10 0 6 5 10 10 10 6 0 10 -4 10
-10z m-55 -10 c3 -5 -1 -10 -10 -10 -9 0 -13 5 -10 10 3 6 8 10 10 10 2 0 7
-4 10 -10z m136 -13 c-13 -13 -26 -3 -16 12 3 6 11 8 17 5 6 -4 6 -10 -1 -17z
m-1868 -12 c-3 -9 -8 -14 -10 -11 -3 3 -2 9 2 15 9 16 15 13 8 -4z m67 1 c0
-3 -4 -8 -10 -11 -5 -3 -10 -1 -10 4 0 6 5 11 10 11 6 0 10 -2 10 -4z m1751
-9 c-1 -12 -15 -9 -19 4 -3 6 1 10 8 8 6 -3 11 -8 11 -12z m-61 -17 c0 -5 -5
-10 -11 -10 -5 0 -7 5 -4 10 3 6 8 10 11 10 2 0 4 -4 4 -10z m100 -20 c0 -5
-4 -10 -10 -10 -5 0 -10 5 -10 10 0 6 5 10 10 10 6 0 10 -4 10 -10z m-1820
-20 c0 -5 -5 -10 -11 -10 -5 0 -7 5 -4 10 3 6 8 10 11 10 2 0 4 -4 4 -10z
m1750 -10 c0 -5 -4 -10 -9 -10 -6 0 -13 5 -16 10 -3 6 1 10 9 10 9 0 16 -4 16
-10z m30 -40 c0 -5 -4 -10 -10 -10 -5 0 -10 5 -10 10 0 6 5 10 10 10 6 0 10
-4 10 -10z m-40 -20 c0 -5 -4 -10 -10 -10 -5 0 -10 5 -10 10 0 6 5 10 10 10 6
0 10 -4 10 -10z m-1997 -82 c-197 -107 -243 -140 -243 -173 0 -20 8 -30 33
-41 l32 -15 -57 4 c-31 2 -68 11 -82 20 -33 22 -35 65 -3 94 28 26 173 92 292
132 50 16 106 37 125 45 81 35 45 11 -97 -66z m260 62 c3 -11 3 -20 1 -20 -2
0 -8 9 -14 20 -6 11 -7 20 -2 20 6 0 12 -9 15 -20z m1817 0 c0 -5 -7 -10 -15
-10 -8 0 -15 5 -15 10 0 6 7 10 15 10 8 0 15 -4 15 -10z m-50 -20 c0 -5 -4
-10 -10 -10 -5 0 -10 5 -10 10 0 6 5 10 10 10 6 0 10 -4 10 -10z m-2450 -40
c-11 -7 -12 -10 -2 -10 9 0 11 -7 6 -22 -9 -31 -9 -31 -33 -16 -38 23 -24 56
24 57 16 1 17 -1 5 -9z m2490 0 c0 -5 -4 -10 -10 -10 -5 0 -10 5 -10 10 0 6 5
10 10 10 6 0 10 -4 10 -10z m-2395 -30 c-10 -11 -20 -18 -23 -15 -3 3 3 14 13
25 10 11 20 18 23 15 3 -3 -3 -14 -13 -25z m660 10 c3 -5 1 -10 -4 -10 -6 0
-11 5 -11 10 0 6 2 10 4 10 3 0 8 -4 11 -10z m1700 -20 c3 -5 1 -10 -4 -10 -6
0 -11 5 -11 10 0 6 2 10 4 10 3 0 8 -4 11 -10z m-2467 -45 c-3 -3 -13 -2 -22
1 -14 5 -15 9 -4 15 13 8 36 -6 26 -16z m2512 15 c0 -5 -4 -10 -10 -10 -5 0
-10 5 -10 10 0 6 5 10 10 10 6 0 10 -4 10 -10z m-1480 -230 c0 -5 7 -10 15
-10 8 0 15 -5 15 -12 0 -6 -105 -118 -233 -247 -220 -223 -268 -275 -313 -346
-35 -55 4 -15 62 63 47 62 487 512 501 512 14 0 -38 -57 -192 -210 -243 -240
-368 -392 -421 -510 -12 -25 -28 -61 -38 -80 l-16 -35 4 35 c4 22 0 42 -9 54
-34 45 -8 134 75 256 43 64 82 96 100 85 14 -9 59 33 106 96 19 26 42 50 51
53 14 6 14 3 -3 -15 l-19 -22 25 13 c32 17 121 101 174 165 40 48 35 53 -14
11 l-24 -21 14 21 c25 37 73 98 99 127 26 28 41 34 41 17z m1737 -57 c82 -35
86 -36 99 -18 8 10 15 17 18 14 10 -12 26 -50 26 -63 0 -18 -27 -46 -44 -46
-8 0 -60 34 -116 75 -56 41 -95 75 -86 75 10 0 56 -17 103 -37z m-1567 -3 c11
0 11 -3 2 -12 -18 -18 -15 -55 6 -68 13 -9 8 -10 -26 -7 -69 8 -91 40 -55 79
11 12 25 17 38 14 11 -3 27 -6 35 -6z m1488 -184 c27 -9 28 -30 3 -62 l-20
-25 -3 23 c-2 13 -11 24 -20 26 -14 3 -18 -3 -18 -26 0 -17 6 -32 15 -36 8 -3
15 -13 15 -22 0 -21 -38 -74 -53 -74 -9 0 -8 3 1 8 7 5 11 17 9 28 -15 78 -34
95 -55 48 -10 -20 -17 -24 -35 -18 -12 3 -23 8 -25 9 -5 5 31 45 41 45 4 0 19
7 33 16 23 16 24 18 8 35 -9 10 -13 22 -10 27 6 10 80 9 114 -2z m-205 -34
c-3 -12 -9 -22 -14 -22 -12 0 -11 7 3 30 15 24 19 21 11 -8z m-1414 -37 c0 -5
-4 -3 -9 5 -5 8 -9 22 -9 30 0 16 17 -16 18 -35z m-20 -120 c1 -32 -28 49 -33
95 l-6 55 19 -70 c11 -38 20 -74 20 -80z m58 113 c-3 -8 -6 -5 -6 6 -1 11 2
17 5 13 3 -3 4 -12 1 -19z m-168 -68 c0 -23 -1 -23 -9 -5 -5 11 -9 31 -9 45 0
23 1 23 9 5 5 -11 9 -31 9 -45z m37 -16 c6 -25 8 -42 3 -37 -4 4 -12 27 -18
51 -12 57 0 45 15 -14z m-83 -27 c-7 -12 -10 -6 -16 38 l-6 40 13 -35 c7 -19
11 -39 9 -43z m-3 -86 c0 -10 -3 -11 -9 -5 -9 9 -42 123 -40 140 0 14 49 -119
49 -135z m-62 12 c21 -52 21 -53 1 -53 -10 0 -19 -4 -19 -10 0 -5 -10 -10 -22
-10 -23 1 -23 1 3 23 24 21 25 24 13 62 -7 22 -13 49 -13 60 l0 20 9 -20 c4
-11 17 -44 28 -72z m132 47 c0 -13 -1 -13 -10 0 -5 8 -10 22 -10 30 0 13 1 13
10 0 5 -8 10 -22 10 -30z m2950 1 c0 -15 -65 -40 -87 -35 -30 8 -18 40 20 51
32 10 67 1 67 -16z m-3630 -11 c0 -11 -7 -20 -15 -20 -18 0 -19 12 -3 28 16
16 18 15 18 -8z m629 -20 c0 -10 -3 -8 -9 5 -12 27 -12 43 0 25 5 -8 9 -22 9
-30z m1681 33 c0 -3 -7 -15 -17 -25 -20 -23 -55 -25 -46 -2 8 20 63 44 63 27z
m-1365 -13 c3 -5 2 -10 -4 -10 -5 0 -13 5 -16 10 -3 6 -2 10 4 10 5 0 13 -4
16 -10z m2185 1 c0 -5 16 -30 35 -55 59 -77 40 -142 -45 -161 -28 -6 -36 -3
-51 16 -19 25 -12 58 18 92 13 13 14 20 5 29 -16 16 -15 34 4 63 16 25 34 33
34 16z m-2095 -33 c7 -7 2 -8 -15 -3 -14 4 -29 12 -35 17 -7 7 -2 8 15 3 14
-4 30 -12 35 -17z m-530 -44 c-10 -8 -24 -13 -30 -11 -14 5 -19 37 -6 37 6 0
10 -4 9 -9 -2 -5 2 -8 7 -7 6 0 9 10 7 21 -3 19 -2 19 15 2 17 -17 17 -19 -2
-33z m605 10 c0 -2 -9 0 -20 6 -11 6 -20 13 -20 16 0 2 9 0 20 -6 11 -6 20
-13 20 -16z m1960 -8 c0 -2 -7 -7 -16 -10 -8 -3 -12 -2 -9 4 6 10 25 14 25 6z
m-2603 -32 c1 -5 -2 -16 -7 -24 -9 -13 -12 -12 -25 4 -12 16 -12 22 -2 28 14
9 30 6 34 -8z m-47 -19 c20 -24 6 -28 -15 -5 -10 11 -13 20 -8 20 6 0 16 -7
23 -15z m1320 -197 c0 -4 -11 -2 -25 4 -17 8 -25 19 -25 37 l0 26 25 -30 c13
-16 24 -33 25 -37z m340 -23 c18 -11 10 -25 -15 -25 -16 0 -25 6 -25 15 0 8
-4 15 -10 15 -5 0 -10 -4 -10 -10 0 -18 -38 -10 -43 9 -3 11 -3 22 0 24 4 5
86 -18 103 -28z m-2181 21 c-11 -9 -69 -15 -64 -6 3 6 20 10 37 10 17 0 29 -2
27 -4z m1791 -26 c8 -5 11 -10 5 -10 -5 0 -17 5 -25 10 -8 5 -10 10 -5 10 6 0
17 -5 25 -10z m55 -18 c-3 -3 -11 0 -18 7 -9 10 -8 11 6 5 10 -3 15 -9 12 -12z
m395 14 c0 -11 -19 -15 -25 -6 -3 5 1 10 9 10 9 0 16 -2 16 -4z m430 -230 c0
-2 -7 -7 -16 -10 -8 -3 -12 -2 -9 4 6 10 25 14 25 6z m-85 -35 c-22 -10 -51
-22 -65 -26 -42 -12 -6 18 38 31 57 18 71 15 27 -5z"/>
<path d="M3742 5158 c-24 -12 -25 -31 0 -36 8 -1 20 9 26 23 13 27 9 29 -26
13z"/>
<path d="M4290 4660 c0 -5 5 -10 10 -10 6 0 10 5 10 10 0 6 -4 10 -10 10 -5 0
-10 -4 -10 -10z"/>
<path d="M3900 7182 c0 -5 10 -17 21 -28 22 -19 22 -19 10 3 -12 24 -31 39
-31 25z"/>
<path d="M3971 7054 c0 -11 3 -14 6 -6 3 7 2 16 -1 19 -3 4 -6 -2 -5 -13z"/>
<path d="M4027 6939 c7 -7 15 -10 18 -7 3 3 -2 9 -12 12 -14 6 -15 5 -6 -5z"/>
<path d="M4021 6904 c0 -11 3 -14 6 -6 3 7 2 16 -1 19 -3 4 -6 -2 -5 -13z"/>
<path d="M2420 6901 c0 -5 5 -13 10 -16 6 -3 10 -2 10 4 0 5 -4 13 -10 16 -5
3 -10 2 -10 -4z"/>
<path d="M4001 6894 c0 -11 3 -14 6 -6 3 7 2 16 -1 19 -3 4 -6 -2 -5 -13z"/>
<path d="M3994 6828 c-3 -4 11 -8 30 -8 20 0 36 2 36 4 0 8 -61 12 -66 4z"/>
<path d="M2216 6776 c3 -9 13 -16 22 -16 8 0 13 1 11 3 -2 1 -12 9 -22 16 -15
12 -17 12 -11 -3z"/>
<path d="M1791 6564 c6 -8 18 -14 26 -14 20 0 8 16 -17 23 -17 4 -19 3 -9 -9z"/>
<path d="M2010 6236 c0 -2 7 -6 15 -10 8 -3 15 -1 15 4 0 6 -7 10 -15 10 -8 0
-15 -2 -15 -4z"/>
<path d="M4558 6218 c6 -6 18 -8 28 -6 14 3 12 5 -9 10 -19 3 -25 2 -19 -4z"/>
<path d="M1948 6213 c-10 -2 -18 -9 -18 -15 0 -6 7 -7 18 -3 9 5 25 8 35 9 9
0 17 4 17 8 0 8 -23 9 -52 1z"/>
<path d="M4693 6038 c3 -10 2 -20 -3 -23 -18 -11 -10 -25 15 -25 31 0 32 20 3
46 -19 17 -21 17 -15 2z"/>
<path d="M4292 5978 c-18 -18 -14 -73 8 -99 15 -19 19 -21 20 -7 0 9 3 25 6
35 5 15 4 15 -5 3 -9 -13 -11 -11 -11 7 0 12 7 26 15 31 14 7 13 10 -3 25 -14
13 -21 14 -30 5z"/>
<path d="M4702 5888 c3 -7 16 -14 30 -16 20 -2 25 -7 21 -23 -4 -14 -1 -18 10
-13 23 9 27 39 6 52 -25 16 -72 16 -67 0z"/>
<path d="M4383 5874 c-3 -9 3 -25 16 -37 22 -23 27 -14 15 31 -7 26 -22 29
-31 6z"/>
<path d="M4760 5801 c0 -11 4 -21 9 -21 18 0 21 18 6 30 -13 10 -15 9 -15 -9z"/>
<path d="M3300 4900 c-19 -11 -31 -19 -27 -20 12 0 77 28 77 34 0 10 -14 6
-50 -14z"/>
<path d="M3185 4849 c-22 -10 -29 -16 -15 -13 28 7 80 33 65 33 -5 0 -28 -9
-50 -20z"/>
<path d="M3060 4810 c-20 -6 -21 -8 -5 -8 11 0 29 3 40 8 25 11 -1 11 -35 0z"/>
<path d="M2995 4800 c-19 -8 -19 -9 3 -9 12 -1 22 4 22 9 0 6 -1 10 -2 9 -2 0
-12 -4 -23 -9z"/>
<path d="M2920 4780 c-13 -9 -13 -10 0 -9 8 0 24 4 35 9 l20 9 -20 0 c-11 0
-27 -4 -35 -9z"/>
<path d="M2670 4639 c-30 -16 -65 -29 -77 -29 -13 0 -22 -5 -20 -11 1 -6 -4
-14 -12 -17 -8 -3 -11 0 -7 7 4 6 2 11 -3 11 -6 0 -11 -6 -11 -14 0 -8 -12
-17 -27 -20 -16 -4 -36 -9 -46 -12 -10 -3 -16 -2 -15 3 5 13 -14 14 -51 2 -26
-9 -35 -9 -42 2 -7 11 -10 9 -15 -8 -7 -25 -20 -30 -27 -10 -4 10 -6 10 -6 0
-2 -22 -17 -14 -30 14 l-12 27 -18 -28 c-10 -15 -21 -27 -25 -27 -21 3 -26 0
-20 -11 6 -10 4 -10 -8 0 -11 9 -23 10 -41 3 -18 -7 -27 -7 -31 2 -2 7 -5 -3
-5 -22 l-1 -34 58 8 c100 14 164 9 183 -14 10 -12 22 -21 28 -21 6 0 11 -4 11
-10 0 -5 20 -10 45 -10 25 0 45 5 45 10 0 19 32 10 37 -10 6 -24 43 -27 43 -4
0 12 6 15 26 10 15 -4 32 -2 40 5 11 9 14 8 14 -5 0 -9 5 -16 10 -16 6 0 10
13 10 29 0 17 5 33 10 36 6 3 10 16 10 27 0 11 8 27 17 34 25 18 12 25 -25 15
-26 -8 -34 -6 -45 10 -12 17 -16 17 -33 4 -21 -16 -54 -20 -54 -7 0 4 36 26
81 47 44 22 85 45 91 52 13 17 13 16 -52 -18z m-263 -141 c-21 -7 -32 -7 -40
1 -8 8 0 11 29 10 39 -1 39 -1 11 -11z"/>
<path d="M1780 4632 c0 -12 31 -74 35 -70 6 6 -20 78 -27 78 -5 0 -8 -4 -8 -8z"/>
<path d="M2042 4614 c-12 -8 -27 -25 -34 -37 -9 -17 -3 -15 26 11 42 37 52 39
78 15 10 -9 18 -11 18 -5 0 13 -32 32 -52 32 -8 0 -24 -7 -36 -16z"/>
<path d="M2505 4590 c-3 -5 -1 -10 4 -10 6 0 11 5 11 10 0 6 -2 10 -4 10 -3 0
-8 -4 -11 -10z"/>
<path d="M2800 4546 c0 -8 5 -18 10 -21 6 -3 10 3 10 14 0 12 -4 21 -10 21 -5
0 -10 -6 -10 -14z"/>
<path d="M2200 4460 c0 -5 7 -10 16 -10 8 0 12 5 9 10 -3 6 -10 10 -16 10 -5
0 -9 -4 -9 -10z"/>
<path d="M1343 4453 c-7 -2 -13 -12 -13 -21 0 -14 1 -14 13 1 6 9 30 18 52 20
l40 4 -40 1 c-22 0 -46 -2 -52 -5z"/>
<path d="M1463 4443 c9 -2 25 -2 35 0 9 3 1 5 -18 5 -19 0 -27 -2 -17 -5z"/>
<path d="M1548 4443 c6 -2 18 -2 25 0 6 3 1 5 -13 5 -14 0 -19 -2 -12 -5z"/>
<path d="M1620 4446 c0 -2 13 -6 29 -8 17 -2 28 -1 25 4 -5 8 -54 12 -54 4z"/>
<path d="M1100 4417 c0 -8 9 -17 20 -20 11 -3 20 -1 20 4 0 4 -9 13 -20 19
-16 8 -20 8 -20 -3z"/>
<path d="M1355 4406 c5 -16 3 -17 -10 -6 -21 17 -19 -3 3 -22 18 -16 61 -33
75 -30 4 1 7 -2 7 -8 0 -5 -6 -11 -12 -11 -7 -1 -22 -3 -33 -5 -11 -2 -43 -8
-71 -12 -91 -14 -131 -63 -89 -106 14 -13 13 -16 -4 -26 -11 -5 -27 -10 -35
-10 -9 0 -16 -4 -16 -10 0 -5 -5 -10 -11 -10 -6 0 -29 -13 -52 -28 -23 -16
-78 -48 -122 -72 -99 -53 -175 -107 -175 -125 0 -7 -4 -15 -9 -17 -20 -7 -253
-235 -275 -269 -14 -20 -41 -54 -61 -75 -39 -43 -109 -143 -110 -159 -1 -11
-10 -35 -30 -82 -28 -64 4 -41 84 61 44 57 101 120 126 141 26 20 44 40 40 43
-3 3 -11 -3 -19 -13 -7 -10 -18 -15 -25 -11 -7 5 -10 2 -9 -5 2 -7 -2 -13 -8
-14 -7 0 -20 -9 -30 -20 -22 -25 -8 -1 21 36 11 14 27 23 35 21 8 -3 12 -2 9
2 -8 9 8 28 108 131 109 112 152 148 169 141 9 -4 14 0 12 8 -3 15 92 86 114
86 7 0 24 10 38 23 37 33 126 67 179 67 25 1 65 5 89 9 36 7 42 6 37 -6 -3
-11 -1 -13 10 -10 8 4 17 2 20 -4 4 -5 10 -7 15 -4 4 3 7 -3 6 -12 0 -9 5 -18
12 -20 7 -3 10 1 6 11 -4 10 3 19 20 28 19 8 23 14 14 20 -9 5 -6 8 10 8 12 0
22 -4 22 -9 0 -10 101 16 110 28 3 4 19 7 37 7 37 0 39 3 -52 -96 -37 -40 -33
-48 5 -10 3 3 17 12 32 20 48 27 158 132 158 151 0 20 -31 41 -52 34 -7 -2
-40 -6 -73 -9 -33 -3 -64 -5 -70 -5 -5 -1 -3 -6 5 -12 12 -9 12 -10 -3 -5 -11
3 -59 1 -108 -6 -79 -10 -93 -10 -125 5 -23 12 -34 23 -32 34 2 14 25 21 110
33 61 9 116 12 129 8 12 -5 38 -4 58 1 51 12 89 12 96 1 12 -20 24 -9 31 28 4
21 20 51 37 70 32 33 30 40 -4 21 -16 -8 -30 -6 -65 10 -34 16 -65 21 -141 22
-106 2 -135 10 -152 43 -9 16 -10 16 -6 2z m135 -88 c-24 -10 -24 -10 -5 -18
11 -4 31 -4 45 0 14 4 50 4 80 1 50 -5 55 -8 58 -31 2 -19 -2 -26 -15 -28 -10
-1 -36 -5 -59 -8 -29 -4 -44 -2 -53 9 -10 13 -16 13 -37 2 -14 -7 -69 -19
-123 -25 -82 -11 -102 -11 -127 1 -35 17 -42 44 -16 58 11 6 57 15 103 20 46
6 98 15 114 20 41 13 66 12 35 -1z m-205 -208 c14 -5 48 -10 76 -11 27 -1 52
-5 54 -9 7 -11 -43 -28 -110 -36 -112 -13 -120 -14 -152 -20 -21 -4 -33 -2
-33 5 0 12 36 34 65 38 10 2 22 7 25 12 4 6 39 29 47 31 1 0 13 -4 28 -10z
m-905 -690 c0 -5 -5 -10 -11 -10 -5 0 -7 5 -4 10 3 6 8 10 11 10 2 0 4 -4 4
-10z"/>
<path d="M2481 4364 c0 -11 3 -14 6 -6 3 7 2 16 -1 19 -3 4 -6 -2 -5 -13z"/>
<path d="M4961 4329 c0 -13 4 -33 9 -44 7 -14 8 -8 3 20 -7 46 -13 59 -12 24z"/>
<path d="M3257 4323 c3 -7 11 -13 19 -13 8 0 14 6 14 13 0 7 -8 13 -19 13 -11
0 -17 -5 -14 -13z"/>
<path d="M1842 4206 c6 -14 15 -26 20 -26 10 0 -7 36 -22 45 -6 4 -5 -5 2 -19z"/>
<path d="M2597 4203 c-7 -13 28 -68 45 -71 22 -4 18 26 -8 55 -23 24 -30 28
-37 16z"/>
<path d="M2560 4190 c0 -5 5 -10 11 -10 5 0 7 5 4 10 -3 6 -8 10 -11 10 -2 0
-4 -4 -4 -10z"/>
<path d="M2090 4130 c-8 -5 -10 -10 -5 -10 6 0 17 5 25 10 8 5 11 10 5 10 -5
0 -17 -5 -25 -10z"/>
<path d="M2010 4100 c-65 -22 -100 -25 -100 -7 -1 7 -7 4 -15 -7 -12 -15 -24
-18 -70 -14 -30 3 -53 2 -50 0 3 -3 -1 -12 -8 -20 -10 -13 -9 -15 5 -9 20 7
65 14 138 22 54 5 136 30 155 47 11 10 13 10 -55 -12z"/>
<path d="M1630 3948 c-36 -34 -55 -55 -44 -47 29 19 116 100 112 104 -2 2 -32
-24 -68 -57z"/>
<path d="M1480 3895 c0 -16 22 -30 39 -23 5 1 -2 11 -15 21 -21 16 -24 16 -24
2z"/>
<path d="M895 3880 c-3 -6 1 -7 9 -4 18 7 21 14 7 14 -6 0 -13 -4 -16 -10z"/>
<path d="M5452 3775 c-19 -8 -21 -15 -16 -40 9 -42 10 -43 45 -40 29 2 32 6
33 34 1 18 -4 31 -11 31 -7 0 -16 6 -20 13 -6 9 -14 10 -31 2z"/>
<path d="M3440 3330 c-12 -8 -11 -10 8 -10 12 0 22 5 22 10 0 13 -11 13 -30 0z"/>
<path d="M5478 3263 c7 -3 16 -2 19 1 4 3 -2 6 -13 5 -11 0 -14 -3 -6 -6z"/>
<path d="M3088 3063 c7 -3 16 -2 19 1 4 3 -2 6 -13 5 -11 0 -14 -3 -6 -6z"/>
<path d="M3185 2879 c-12 -19 5 -23 22 -6 16 16 16 17 1 17 -9 0 -20 -5 -23
-11z"/>
<path d="M3250 2740 c-11 -22 -18 -40 -15 -40 2 0 14 18 25 40 11 22 18 40 15
40 -2 0 -14 -18 -25 -40z"/>
<path d="M3212 2678 c-14 -18 -59 -118 -68 -152 -12 -49 13 -21 36 40 11 31
27 69 36 86 16 31 14 47 -4 26z"/>
<path d="M1211 2531 c-9 -6 -10 -11 -2 -15 13 -8 31 1 31 15 0 11 -11 11 -29
0z"/>
<path d="M1350 2474 c0 -22 22 -74 31 -74 10 0 -3 53 -17 75 -14 19 -14 19
-14 -1z"/>
<path d="M1454 2456 c-19 -21 -24 -47 -9 -52 15 -6 71 42 57 49 -22 12 -38 13
-48 3z"/>
<path d="M4946 2461 c-4 -5 -2 -12 3 -15 5 -4 12 -2 15 3 4 5 2 12 -3 15 -5 4
-12 2 -15 -3z"/>
<path d="M1005 2420 c4 -6 11 -8 16 -5 14 9 11 15 -7 15 -8 0 -12 -5 -9 -10z"/>
<path d="M1829 2344 c-19 -18 -38 -26 -73 -28 -27 -2 -55 -11 -66 -21 -11 -10
-20 -13 -20 -7 0 6 8 15 17 21 10 5 15 13 11 16 -10 10 -89 -40 -81 -51 4 -5
2 -4 -4 1 -7 6 -16 28 -20 49 l-8 39 -13 -27 c-7 -15 -8 -25 -3 -21 5 3 12 -5
16 -17 4 -13 9 -31 12 -42 3 -12 1 -16 -6 -12 -6 4 -11 2 -11 -5 0 -8 13 -10
43 -5 96 15 192 63 225 114 19 29 13 28 -19 -4z"/>
<path d="M1860 2330 c-36 -31 -36 -31 23 -34 9 0 16 2 15 5 -2 4 5 16 15 27
18 20 18 20 -4 15 -15 -4 -20 -3 -15 5 11 18 5 14 -34 -18z"/>
<path d="M650 2309 c0 -2 7 -22 14 -44 14 -41 52 -65 44 -28 -2 10 -10 17 -16
16 -7 -2 -12 3 -12 10 0 6 -7 21 -15 31 -8 11 -15 18 -15 15z"/>
<path d="M1550 2281 c0 -6 4 -13 10 -16 6 -3 7 1 4 9 -7 18 -14 21 -14 7z"/>
<path d="M2335 2258 c-4 -10 -4 -26 0 -35 8 -17 8 -17 12 0 3 9 3 25 0 35 -4
16 -4 16 -12 0z"/>
<path d="M2114 2246 c-3 -9 -4 -22 -1 -29 5 -13 106 -42 114 -33 9 9 -7 24
-34 31 -16 3 -38 16 -50 27 -20 19 -23 19 -29 4z"/>
<path d="M955 2220 c-4 -6 -1 -17 5 -25 7 -8 10 -26 7 -41 -3 -18 -1 -24 9
-20 7 3 16 1 20 -5 3 -6 13 -7 23 -4 9 4 22 8 29 9 33 6 72 66 42 66 -5 0 -7
7 -4 15 5 12 0 12 -28 4 -18 -6 -40 -13 -49 -16 -9 -2 -19 2 -22 11 -7 18 -23
21 -32 6z"/>
<path d="M1195 2214 l-30 -14 30 6 c31 6 41 11 34 18 -2 2 -17 -2 -34 -10z"/>
<path d="M1520 2220 c-13 -8 -12 -10 3 -10 9 0 17 5 17 10 0 12 -1 12 -20 0z"/>
<path d="M1140 2211 c0 -6 5 -13 10 -16 6 -3 10 1 10 9 0 9 -4 16 -10 16 -5 0
-10 -4 -10 -9z"/>
<path d="M2288 2215 c-9 -10 7 -78 20 -83 10 -3 12 7 10 39 -3 38 -16 58 -30
44z"/>
<path d="M2338 2150 c-2 -23 0 -46 4 -53 4 -7 8 12 8 41 0 62 -6 68 -12 12z"/>
<path d="M4991 2164 c0 -11 3 -14 6 -6 3 7 2 16 -1 19 -3 4 -6 -2 -5 -13z"/>
<path d="M1310 2156 c0 -9 30 -14 35 -6 4 6 -3 10 -14 10 -12 0 -21 -2 -21 -4z"/>
<path d="M3403 2148 c-7 -8 -8 -19 -3 -28 8 -12 10 -12 15 2 10 26 2 43 -12
26z"/>
<path d="M4980 2118 c0 -23 31 -88 42 -88 5 0 6 5 3 10 -3 6 0 10 7 11 7 0 3
4 -9 9 -13 5 -23 17 -23 27 0 10 -5 25 -10 33 -8 13 -10 13 -10 -2z"/>
<path d="M5000 2119 c0 -5 5 -7 10 -4 6 3 10 8 10 11 0 2 -4 4 -10 4 -5 0 -10
-5 -10 -11z"/>
<path d="M3337 2089 c7 -7 15 -10 18 -7 3 3 -2 9 -12 12 -14 6 -15 5 -6 -5z"/>
<path d="M5177 2078 c2 -5 17 -8 34 -8 16 0 29 3 29 8 0 4 -15 7 -34 7 -19 0
-32 -3 -29 -7z"/>
<path d="M3317 2051 c2 -8 -2 -11 -11 -8 -8 3 -26 -5 -40 -18 -14 -13 -26 -19
-26 -12 0 7 -5 4 -11 -5 -7 -12 -19 -16 -39 -14 -17 2 -30 -1 -30 -5 0 -5 11
-9 24 -9 19 0 22 -4 18 -25 -2 -15 0 -25 7 -25 6 0 11 6 11 13 0 8 3 8 9 -2 5
-8 16 -11 25 -8 28 11 30 -16 3 -39 -30 -26 -24 -36 12 -23 20 8 23 14 18 44
-6 40 -5 41 18 19 21 -21 33 -9 17 16 -15 24 -15 40 -2 40 5 0 12 -11 16 -24
5 -23 44 -45 44 -25 0 5 -4 9 -9 9 -8 0 -8 17 1 78 1 6 6 12 11 12 6 0 8 3 4
6 -3 3 -19 -3 -35 -15 -38 -26 -55 -27 -23 -1 16 14 19 20 8 20 -8 0 -17 3
-20 8 -2 4 -2 1 0 -7z m43 -41 c0 -5 -4 -10 -10 -10 -5 0 -10 5 -10 10 0 6 5
10 10 10 6 0 10 -4 10 -10z"/>
<path d="M3056 2033 c-4 -19 -14 -33 -22 -33 -8 0 -17 -7 -21 -16 -3 -8 -11
-13 -17 -11 -12 5 -15 -38 -3 -50 12 -11 8 -25 -5 -17 -7 4 -8 3 -4 -5 12 -18
28 -1 22 23 -6 26 17 66 28 48 4 -6 14 -8 24 -5 16 6 16 5 1 -13 -23 -27 -32
-71 -16 -78 6 -3 -8 -3 -33 -1 -35 4 -39 3 -20 -4 14 -5 45 -9 70 -9 25 0 37
2 28 5 -10 2 -15 10 -11 19 4 11 9 12 18 4 9 -8 15 -8 20 0 3 5 1 10 -5 10 -7
0 -9 7 -6 16 3 8 2 12 -4 9 -13 -8 -13 6 0 25 8 12 11 13 19 1 7 -11 10 -11
17 0 4 8 2 15 -5 17 -11 4 -11 6 0 13 17 10 11 17 -25 23 -16 3 -34 10 -40 16
-8 8 -5 9 9 5 12 -4 15 -3 9 2 -6 4 -13 15 -16 23 -3 9 -8 2 -12 -17z"/>
<path d="M4930 1976 c0 -2 7 -9 15 -16 13 -11 14 -10 9 4 -5 14 -24 23 -24 12z"/>
<path d="M3210 1911 c-7 -15 -7 -21 0 -21 12 0 25 28 17 36 -3 3 -10 -4 -17
-15z"/>
<path d="M766 1905 c4 -8 8 -15 10 -15 2 0 4 7 4 15 0 8 -4 15 -10 15 -5 0 -7
-7 -4 -15z"/>
<path d="M3140 1864 c-24 -13 -24 -14 -4 -14 12 0 24 7 28 15 3 8 4 15 3 14
-1 -1 -13 -7 -27 -15z"/>
<path d="M3190 1870 c-18 -11 -11 -18 29 -30 19 -5 29 -5 26 1 -4 5 -13 9 -22
9 -9 0 -13 6 -9 15 6 17 -2 19 -24 5z"/>
<path d="M578 1823 c6 -2 18 -2 25 0 6 3 1 5 -13 5 -14 0 -19 -2 -12 -5z"/>
<path d="M3260 1826 c0 -2 9 -6 20 -9 11 -3 18 -1 14 4 -5 9 -34 13 -34 5z"/>
<path d="M520 1809 c0 -5 5 -7 10 -4 6 3 10 8 10 11 0 2 -4 4 -10 4 -5 0 -10
-5 -10 -11z"/>
<path d="M465 1800 l-20 -9 20 0 c11 0 27 4 35 9 13 9 13 10 0 9 -8 0 -24 -4
-35 -9z"/>
<path d="M3325 1790 c10 -11 20 -20 22 -20 2 0 -2 9 -9 20 -7 11 -17 20 -22
20 -5 0 -1 -9 9 -20z"/>
<path d="M5335 1660 c3 -5 8 -10 11 -10 2 0 4 5 4 10 0 6 -5 10 -11 10 -5 0
-7 -4 -4 -10z"/>
<path d="M925 1527 c-11 -7 -21 -21 -23 -32 l-3 -20 16 20 c8 11 23 26 32 33
21 15 4 15 -22 -1z"/>
<path d="M3220 1531 c0 -13 29 -35 37 -28 7 8 -15 37 -28 37 -5 0 -9 -4 -9 -9z"/>
<path d="M810 1505 c7 -8 17 -15 22 -15 6 0 5 7 -2 15 -7 8 -17 15 -22 15 -6
0 -5 -7 2 -15z"/>
<path d="M5257 1418 c-2 -18 -1 -40 4 -48 5 -10 8 1 9 33 0 55 -6 61 -13 15z"/>
<path d="M5191 1383 c-10 -26 -10 -27 4 -9 8 11 15 23 15 28 0 15 -7 8 -19
-19z"/>
<path d="M5160 1314 c-8 -14 -26 -32 -40 -39 -14 -8 -19 -14 -12 -15 7 0 10
-4 7 -10 -3 -6 1 -7 10 -4 9 4 25 24 36 46 22 44 21 64 -1 22z"/>
<path d="M1586 1321 c-4 -5 -2 -12 4 -16 5 -3 10 -15 10 -26 0 -10 4 -19 8
-19 11 0 3 58 -8 65 -5 3 -11 1 -14 -4z"/>
<path d="M4200 1220 c-51 -4 -69 -8 -57 -14 18 -9 160 5 142 14 -5 3 -44 3
-85 0z"/>
<path d="M900 1109 c0 -4 9 -13 20 -19 16 -8 20 -8 20 3 0 8 -9 17 -20 20 -11
3 -20 1 -20 -4z"/>
<path d="M5069 1008 c-11 -20 -10 -21 3 -11 8 7 18 10 21 6 4 -3 7 1 7 10 0
24 -17 21 -31 -5z"/>
<path d="M4802 985 c0 -16 2 -22 5 -12 2 9 2 23 0 30 -3 6 -5 -1 -5 -18z"/>
<path d="M1200 933 c0 -5 7 -18 15 -29 12 -16 14 -16 15 -3 0 9 -7 22 -15 29
-8 7 -15 8 -15 3z"/>
<path d="M4938 918 c3 -14 2 -19 -6 -14 -7 4 -12 1 -12 -9 0 -14 3 -14 25 1
20 13 23 19 14 30 -17 21 -28 17 -21 -8z"/>
<path d="M4865 901 c-3 -6 -12 -8 -18 -5 -8 5 -8 3 1 -7 9 -10 15 -10 24 -1 6
6 9 14 6 17 -3 4 -9 1 -13 -4z"/>
<path d="M2400 886 c0 -8 4 -17 10 -21 5 -3 7 -11 4 -19 -3 -7 7 -18 21 -24
33 -15 42 -15 28 -1 -6 6 -9 17 -7 23 5 13 -31 56 -46 56 -6 0 -10 -6 -10 -14z"/>
<path d="M2103 874 c-7 -7 -13 -19 -13 -26 0 -7 7 -2 16 10 18 26 16 37 -3 16z"/>
<path d="M980 720 c-17 -6 -9 -7 25 -3 28 3 52 7 54 9 8 7 -54 2 -79 -6z"/>
<path d="M3622 678 c2 -6 10 -14 16 -16 7 -2 10 2 6 12 -7 18 -28 22 -22 4z"/>
<path d="M3227 629 c7 -7 15 -10 18 -7 3 3 -2 9 -12 12 -14 6 -15 5 -6 -5z"/>
<path d="M3243 583 c9 -2 23 -2 30 0 6 3 -1 5 -18 5 -16 0 -22 -2 -12 -5z"/>
<path d="M2841 431 c24 -15 184 -39 216 -33 21 5 7 9 -52 19 -141 22 -182 25
-164 14z"/>
<path d="M4957 429 c15 -15 73 -22 73 -8 0 5 -8 9 -17 9 -10 0 -29 3 -43 6
-20 6 -23 4 -13 -7z"/>
<path d="M3165 280 c-3 -5 3 -10 14 -10 12 0 21 5 21 10 0 6 -6 10 -14 10 -8
0 -18 -4 -21 -10z"/>
<path d="M3695 250 c-3 -5 -2 -10 4 -10 5 0 13 5 16 10 3 6 2 10 -4 10 -5 0
-13 -4 -16 -10z"/>
</g>
</svg>
